# xmcd
#
# Track frame offsets:
#	150
#	30686
#	57687
#	91343
#	131532
#	162215
#	182883
#	200586
#	226052
#
# Disc length: 3414 seconds
#
# Revision: 0
# Processed by: cddbd v1.5.2PL0 Copyright (c) Steve Scherf et al.
# Submitted via: EasyCDDAExtractor 12.0.1.1
#
DISCID=770d5409
DTITLE=Masters of Bluegrass - MOB 2004.07.18 [CD2]
DYEAR=2004
DGENRE=Bluegrass
TTITLE0=Blue Moon of Kentucky
TTITLE1=Mule Skinner Blues
TTITLE2=Brillancy->Girl From The North Country
TTITLE3=Sailin' Shoes
TTITLE4=Unknown
TTITLE5=Dust Bowl Children
TTITLE6=Ruby Ridge
TTITLE7=Unknown
TTITLE8=Wisdom Girl
EXTD=
EXTT0=
EXTT1=
EXTT2=
EXTT3=
EXTT4=
EXTT5=
EXTT6=
EXTT7=
EXTT8=
PLAYORDER=
